<?xml version="1.0" encoding="UTF-8" standalone="no"?>
<svg width="90px" height="59px" viewBox="0 0 90 59" version="1.1" xmlns="http://www.w3.org/2000/svg" xmlns:xlink="http://www.w3.org/1999/xlink">
    <!-- Generator: Sketch 3.8.3 (29802) - http://www.bohemiancoding.com/sketch -->
    <title>QUERY</title>
    <desc>Created with Sketch.</desc>
    <defs></defs>
    <g id="Page-1" stroke="none" stroke-width="1" fill="none" fill-rule="evenodd">
        <g id="QUERY" fill="#FFFFFF">
            <g id="Page-1">
                <g id="ICONS">
                    <g id="Query-Icon-Copy">
                        <path d="M66.4772727,58.1339714 L3.49880382,58.1339714 C1.56396531,58.1339714 0,56.5665071 0,54.6351674 C0,52.700329 1.56396531,51.1363636 3.49880382,51.1363636 L66.4772727,51.1363636 C68.4086124,51.1363636 69.9760765,52.700329 69.9760765,54.6351674 C69.9760765,56.5665071 68.4086124,58.1339714 66.4772727,58.1339714 Z M2.01854066,34.9810407 L38.3522727,34.9810407 C39.4665071,34.9810407 40.3708134,36.545006 40.3708134,38.4798445 C40.3708134,40.4111843 39.4665071,41.9786483 38.3522727,41.9786483 L2.01854066,41.9786483 C0.902287679,41.9786483 0,40.4111843 0,38.4798445 C0,36.545006 0.902287679,34.9810407 2.01854066,34.9810407 Z M66.4772727,6.99760765 L3.49880382,6.99760765 C1.56396531,6.99760765 0,5.43014354 0,3.49880382 C0,1.56396531 1.56396531,0 3.49880382,0 L66.4772727,0 C68.4086124,0 69.9760765,1.56396531 69.9760765,3.49880382 C69.9760765,5.43014354 68.4086124,6.99760765 66.4772727,6.99760765 Z M38.3522727,24.488128 L2.01854066,24.488128 C0.902287679,24.488128 0,22.9206639 0,20.9893242 C0,19.0544856 0.902287679,17.4905203 2.01854066,17.4905203 L38.3522727,17.4905203 C39.4665071,17.4905203 40.3708134,19.0544856 40.3708134,20.9893242 C40.3708134,22.9206639 39.4665071,24.488128 38.3522727,24.488128 Z" id="Combined-Shape"></path>
                        <g id="MagGlass" transform="translate(45.000000, 9.782609)">
                            <path d="M29.8615366,34.7036808 L38.7200659,43.5622102 C40.0571872,44.8993314 42.225089,44.8993314 43.5622102,43.5622102 C44.8993314,42.225089 44.8993314,40.0571872 43.5622102,38.7200659 L34.7036808,29.8615366 C33.3665596,28.5244153 31.1986578,28.5244153 29.8615366,29.8615366 C28.5244153,31.1986578 28.5244153,33.3665596 29.8615366,34.7036808 L29.8615366,34.7036808 Z" id="Line"></path>
                            <path d="M19.5652174,38.1521739 C29.83051,38.1521739 38.1521739,29.83051 38.1521739,19.5652174 C38.1521739,9.29992476 29.83051,0.97826087 19.5652174,0.97826087 C9.29992476,0.97826087 0.97826087,9.29992476 0.97826087,19.5652174 C0.97826087,29.83051 9.29992476,38.1521739 19.5652174,38.1521739 L19.5652174,38.1521739 Z M19.5652174,32.2826087 C12.5415961,32.2826087 6.84782609,26.5888387 6.84782609,19.5652174 C6.84782609,12.5415961 12.5415961,6.84782609 19.5652174,6.84782609 C26.5888387,6.84782609 32.2826087,12.5415961 32.2826087,19.5652174 C32.2826087,26.5888387 26.5888387,32.2826087 19.5652174,32.2826087 L19.5652174,32.2826087 Z" id="Oval-1"></path>
                        </g>
                    </g>
                </g>
            </g>
        </g>
    </g>
</svg>