<?xml version="1.0" encoding="UTF-8" standalone="no"?>
<svg width="88px" height="81px" viewBox="0 0 88 81" version="1.1" xmlns="http://www.w3.org/2000/svg" xmlns:xlink="http://www.w3.org/1999/xlink">
    <!-- Generator: Sketch 3.8.3 (29802) - http://www.bohemiancoding.com/sketch -->
    <title>Schema White</title>
    <desc>Created with Sketch.</desc>
    <defs></defs>
    <g id="Page-1" stroke="none" stroke-width="1" fill="none" fill-rule="evenodd">
        <g id="Artboard" transform="translate(-1.000000, 0.000000)">
            <g id="Schema-White" transform="translate(1.000000, 0.000000)">
                <g id="Lines" transform="translate(14.000000, 11.000000)">
                    <polygon id="Line" fill="#FFFFFF" points="20.1064524 52.9853976 46.6064524 6.48539759 48.09185 3.87894521 42.8789452 0.908150031 41.3935476 3.51460241 14.8935476 50.0146024 13.40815 52.6210548 18.6210548 55.59185"></polygon>
                    <path d="M17,6 L43,53" id="Line-Copy" stroke="#FFFFFF" stroke-width="6" stroke-linecap="square"></path>
                    <polygon id="Line-Copy" fill="#FFFFFF" points="3 30 57 30 60 30 60 24 57 24 3 24 0 24 0 30"></polygon>
                </g>
                <g id="Circles" fill="#FFFFFF">
                    <circle id="Oval-1" cx="28" cy="12" r="12"></circle>
                    <circle id="Oval-1" cx="61" cy="12" r="12"></circle>
                    <circle id="Oval-1" cx="76" cy="39" r="12"></circle>
                    <circle id="Oval-1" cx="61" cy="69" r="12"></circle>
                    <circle id="Oval-1" cx="28" cy="69" r="12"></circle>
                    <circle id="Oval-1" cx="12" cy="39" r="12"></circle>
                </g>
            </g>
        </g>
    </g>
</svg>